<svg width="140" height="140" viewBox="0 0 140 140" fill="none" xmlns="http://www.w3.org/2000/svg">
<rect width="140" height="140" rx="70" fill="white"/>
<mask id="mask0_327_25653" style="mask-type:luminance" maskUnits="userSpaceOnUse" x="23" y="26" width="94" height="103">
<path d="M116.667 26.3333H23.3335V128.769H116.667V26.3333Z" fill="white"/>
</mask>
<g mask="url(#mask0_327_25653)">
<mask id="mask1_327_25653" style="mask-type:alpha" maskUnits="userSpaceOnUse" x="23" y="26" width="94" height="104">
<path d="M116.667 129.015H23.3335V26.3484H116.667V129.015Z" fill="black"/>
</mask>
<g mask="url(#mask1_327_25653)">
<path fill-rule="evenodd" clip-rule="evenodd" d="M67.9096 127.798C54.86 121.728 43.526 111.781 35.9937 99.7915C28.4796 87.8371 24.5306 73.9918 23.5645 56.2157C23.2568 50.5445 23.2568 43.4705 23.5628 34.5932L23.7018 30.5417L27.7004 29.8717C41.7707 27.5241 56.0032 26.333 70.0007 26.333C83.9982 26.333 98.229 27.5241 112.298 29.8717L116.296 30.5417L116.437 34.5932C116.745 43.4722 116.745 50.5462 116.435 56.2157C115.467 73.9918 111.52 87.8371 104.006 99.7915C96.4754 111.781 85.1381 121.728 72.0901 127.798L70.0007 128.769L67.9096 127.798Z" fill="black"/>
</g>
<path fill-rule="evenodd" clip-rule="evenodd" d="M70.0006 29.2539C55.8895 29.2539 41.2421 30.4546 26.3756 33.0113C26.1537 38.9499 25.9007 48.1291 26.3257 55.9184C27.2722 73.2853 31.1089 86.765 38.4003 98.3403C45.6698 109.882 56.9276 119.806 70.0006 125.7C83.0735 119.806 94.3302 109.882 101.6 98.3403C108.892 86.765 112.728 73.2853 113.675 55.9184C114.098 48.1291 113.846 38.9499 113.624 33.0113C98.7579 30.4546 84.1116 29.2539 70.0006 29.2539ZM70.0006 30.927C83.9106 30.927 98.0346 32.1057 111.998 34.4321C112.305 43.2421 112.305 50.2519 112 55.828C111.07 72.899 107.315 86.1256 100.18 97.4507C93.0472 108.775 82.35 118.129 70.0006 123.86C57.6502 118.129 46.9539 108.775 39.8207 97.4507C32.6866 86.1256 28.9305 72.899 28.0009 55.828C27.6964 50.2519 27.6962 43.2421 28.0027 34.4321C41.9665 32.1057 56.0896 30.927 70.0006 30.927Z" fill="white"/>
<path fill-rule="evenodd" clip-rule="evenodd" d="M40.8157 38.8956C40.6788 38.8923 40.5329 38.8987 40.3786 38.9146C38.3124 39.1301 36.2492 39.3672 34.188 39.6274V45.7148C34.5453 45.6691 34.9037 45.6254 35.261 45.5817V43.6983C36.9649 43.4898 38.6717 43.2971 40.3786 43.1193C41.6128 42.9913 42.3025 42.4762 42.3025 41.2013V40.5122C42.3025 39.4219 41.7745 38.9191 40.8157 38.8956ZM40.6973 39.8636C40.9749 39.8348 41.2536 40.0454 41.2536 40.3244V41.5575C41.2536 41.8226 40.9749 42.076 40.6973 42.1058C38.8839 42.2915 37.0714 42.496 35.261 42.7165V40.4754C37.0714 40.254 38.8839 40.0503 40.6973 39.8636Z" fill="white"/>
<path fill-rule="evenodd" clip-rule="evenodd" d="M68.0207 37.3859C69.9526 37.372 71.8844 37.379 73.8152 37.4048V38.3858C71.751 38.359 69.6858 38.353 67.6206 38.3699C67.341 38.3729 67.0613 38.6142 67.0613 38.8932V41.9434C67.0613 42.2224 67.341 42.4984 67.6206 42.4954C69.4728 42.4795 71.3241 42.4825 73.1763 42.5034V40.8581C72.1014 40.8462 71.0265 40.8403 69.9526 40.8412V39.8593C71.3778 39.8593 72.803 39.8702 74.2283 39.891V43.4983C72.2258 43.4685 70.2233 43.4605 68.2208 43.4724C66.7547 43.4824 66.0093 43.2302 66.0093 41.8103V39.1573C66.0093 37.8318 66.6751 37.3959 68.0207 37.3859Z" fill="white"/>
<path fill-rule="evenodd" clip-rule="evenodd" d="M88.9427 38.0225C87.788 38.0258 87.2686 38.3901 87.2686 39.5847V42.3031C87.2686 43.7497 88.0138 44.0321 89.4768 44.1303C90.8205 44.2217 92.1621 44.3227 93.5048 44.433C94.9529 44.5521 95.7105 44.3058 95.7105 42.9385V40.2202C95.7105 38.8271 94.8334 38.4547 93.5048 38.3455C92.1621 38.2343 90.8205 38.1341 89.4768 38.0418C89.2856 38.0289 89.1077 38.022 88.9427 38.0225ZM88.8789 38.9839C90.6217 39.0981 92.3623 39.2292 94.103 39.3762C94.3817 39.4 94.6605 39.6629 94.6605 39.9807V42.9925C94.6605 43.2705 94.3817 43.5256 94.103 43.5018C92.3623 43.3549 90.6217 43.2236 88.8789 43.1084C88.5594 43.0866 88.3193 42.7939 88.3193 42.5149V39.5041C88.3193 39.1854 88.5594 38.962 88.8789 38.9839Z" fill="white"/>
<path fill-rule="evenodd" clip-rule="evenodd" d="M63.373 37.4558V41.8593C63.373 43.2524 62.6395 43.5582 61.1615 43.6039C59.8746 43.6436 58.5877 43.6913 57.3008 43.7488C55.9293 43.8104 55.0913 43.5503 55.0913 42.1711V37.7676L56.1423 37.714V42.3032C56.1423 42.5822 56.3822 42.8096 56.7007 42.7947C58.3877 42.7162 60.0737 42.6527 61.7607 42.604C62.0811 42.5951 62.2941 42.3508 62.2941 42.0718V37.4826C62.6534 37.4727 63.0127 37.4638 63.373 37.4558Z" fill="white"/>
<path fill-rule="evenodd" clip-rule="evenodd" d="M76.8589 37.4612C79.4506 37.5227 82.0413 37.62 84.632 37.7531V38.7341C82.3926 38.6199 80.1523 38.5315 77.9109 38.47V39.9683C79.9044 40.0239 81.897 40.0993 83.8885 40.1956V41.1776C81.897 41.0813 79.9044 41.0049 77.9109 40.9502V42.5945C80.1523 42.6561 82.3926 42.7444 84.632 42.8596V43.8406C82.0413 43.7085 79.4506 43.6112 76.8589 43.5487V37.4612Z" fill="white"/>
<path fill-rule="evenodd" clip-rule="evenodd" d="M52.4545 37.9172V38.8982C50.2162 39.0362 47.9788 39.2001 45.7434 39.3897V40.889C47.7319 40.7192 49.7215 40.5713 51.7121 40.4442V41.4262C49.7215 41.5533 47.7319 41.7012 45.7434 41.87V43.5152C47.9788 43.3246 50.2162 43.1608 52.4545 43.0237V44.0047C49.8658 44.1636 47.2791 44.3582 44.6934 44.5876V38.4991C47.2791 38.2697 49.8658 38.0761 52.4545 37.9172Z" fill="white"/>
<path fill-rule="evenodd" clip-rule="evenodd" d="M97.6582 38.7173C100.379 38.9814 103.098 39.2852 105.813 39.6268V40.6088C104.639 40.4608 103.464 40.3198 102.287 40.1868V45.2933C101.93 45.2526 101.573 45.2129 101.213 45.1731V40.0666C100.03 39.9366 98.8436 39.8144 97.6582 39.6993V38.7173Z" fill="white"/>
<path fill-rule="evenodd" clip-rule="evenodd" d="M61.6549 50.3665C66.6512 49.9287 73.4121 49.8095 79.8705 50.297C80.2377 50.3248 80.595 50.4112 80.9344 50.5542C83.0504 51.4419 86.8046 53.384 90.9788 55.766C91.1629 55.8712 91.3361 55.9943 91.4953 56.1343C92.6011 57.1064 95.4028 59.9659 95.4028 59.9659L94.5289 59.7932C94.4065 59.7693 94.2921 59.7217 94.1886 59.6522C92.4209 58.4677 89.8402 56.9257 87.6774 55.8384C87.4207 55.7104 87.143 55.6279 86.8573 55.5982C85.8053 55.486 84.3831 55.3877 83.4525 55.3499C82.9937 55.3311 82.6812 55.2546 82.2323 55.0272C81.3744 54.5933 79.2962 53.6531 78.2611 53.2589C77.8182 53.0901 77.5923 53.0504 77.1584 53.0573C75.3798 53.0831 71.328 53.2122 69.2588 53.3403C69.1872 53.3443 69.1185 53.3412 69.0488 53.3303L68.0625 53.1764C70.8592 52.6959 77.7724 52.0813 80.6339 51.9313L79.4694 51.5431C79.2445 51.4686 79.0106 51.4289 78.7727 51.423C78.1515 51.4082 76.7702 51.3807 74.9771 51.3783L74.3646 51.3784C71.6486 51.3837 68.1542 51.4502 64.9314 51.692C64.6497 51.7129 64.375 51.7804 64.1162 51.8946C62.8144 52.465 59.6399 54.1821 56.4562 55.9457L55.7493 56.338C54.9262 56.7955 54.1117 57.2506 53.3384 57.6842C53.3384 57.6842 53.7355 57.1749 53.8121 57.0756C53.8798 56.9892 53.9007 56.9733 53.9923 56.9137C54.1202 56.8301 54.557 56.543 54.9973 56.2518L55.3235 56.0357C55.5879 55.8601 55.8239 55.7024 55.957 55.611C56.0226 55.5664 56.0644 55.5346 56.147 55.473C57.1055 54.7522 58.6183 53.4813 59.52 52.6939C59.7241 52.5162 59.8973 52.3096 60.0396 52.0793C60.3312 51.6086 60.6497 51.0983 60.8458 50.8153C61.013 50.5701 61.2986 50.3983 61.6549 50.3665Z" fill="white"/>
<path fill-rule="evenodd" clip-rule="evenodd" d="M64.0754 55.1829C64.1899 55.1819 64.2615 55.305 64.2048 55.4033L61.7902 59.5507C61.6559 59.7949 61.431 59.9766 61.1642 60.057L56.6367 61.4699C56.1112 61.6288 55.6673 61.7142 55.1199 61.7559C54.1157 61.8314 51.1328 61.9247 51.1328 61.9247L51.1985 61.7837C51.2294 61.7172 51.2841 61.6646 51.3518 61.6358L52.7631 61.038C52.8686 60.9933 52.9611 60.9248 53.0318 60.8365L55.2115 58.1596C55.3279 58.0166 55.4802 57.8796 55.6424 57.7942C57.0826 57.0386 59.6434 55.9037 61.4369 55.306C61.6061 55.2494 61.834 55.2137 62.0122 55.2117L64.0754 55.1829Z" fill="white"/>
<path fill-rule="evenodd" clip-rule="evenodd" d="M52.8073 62.6346C52.9019 62.6266 52.9914 62.6793 53.0283 62.7656C53.1527 63.0546 53.1188 63.3773 52.9984 63.6533C52.9516 63.7655 52.8073 63.8747 52.6889 63.9005L51.6986 64.12C51.6389 64.1329 51.5841 64.0852 51.5881 64.0246L51.6807 62.8649C51.6876 62.7865 51.7493 62.7239 51.828 62.718L52.8073 62.6346Z" fill="white"/>
<path fill-rule="evenodd" clip-rule="evenodd" d="M74.7686 57.7373C74.9169 57.7115 75.0692 57.7324 75.2055 57.7969L76.2396 58.2904C76.3411 58.339 76.4158 58.4314 76.4426 58.5426C76.583 59.1324 76.7552 59.9138 76.8706 60.578C76.9174 60.8541 76.8656 61.136 76.7253 61.3793C76.2973 62.121 75.4185 63.4555 74.9268 64.1724C74.8174 64.3332 74.8044 64.5278 74.8383 64.7194C75.0612 65.9487 75.9908 70.241 75.9908 70.241L75.4056 69.7098C75.2891 69.6025 75.2125 69.4894 75.1627 69.3414C74.7467 68.1271 73.9684 65.5902 73.6101 64.356C73.5524 64.1525 73.5962 63.935 73.7305 63.7732C74.3406 63.0345 75.2294 61.8529 75.7489 61.1043C75.8942 60.8938 75.942 60.6614 75.8564 60.4877C75.737 60.2434 75.5359 59.8721 75.3429 59.5355C75.2911 59.4422 75.2045 59.3727 75.102 59.3389L74.4003 59.1145C74.2779 59.0758 74.1465 59.0778 74.0251 59.1215C72.4964 59.6745 70.4401 60.4718 69.1821 60.9921C68.998 61.0685 68.9223 61.0745 68.6994 61.0407C68.3351 60.9871 67.2741 60.7975 66.7536 60.7002C66.6601 60.6823 66.6133 60.5771 66.6611 60.4946L67.2781 59.4283C67.3617 59.2843 67.5001 59.182 67.6633 59.1453C69.6479 58.6945 72.2724 58.1762 74.7686 57.7373Z" fill="white"/>
<path fill-rule="evenodd" clip-rule="evenodd" d="M53.1905 58.8547L52.7844 59.3532C52.7615 59.375 52.7396 59.3959 52.7167 59.4187C52.3594 59.6818 50.8556 60.8306 50.4485 61.1523C50.333 61.2437 50.2873 61.3231 50.2604 61.4671C50.1688 61.9754 50.0165 62.9415 49.9718 63.4767C49.9588 63.6336 49.8911 63.711 49.7309 63.7756C49.0332 64.0586 48.2061 64.3564 47.5373 64.6235C47.394 64.6801 47.3542 64.702 47.2696 64.7665C47.2029 64.8181 46.3141 65.6095 46.3141 65.6095C46.3141 65.6095 48.2459 65.1349 48.9546 64.975C49.1238 64.9373 49.1964 64.9472 49.3527 65.0207C49.499 65.0882 49.7428 65.1845 49.8712 65.2312C50.0683 65.3037 50.1728 65.3007 50.3908 65.253C51.189 65.0753 52.5316 64.7576 53.2462 64.5719C53.6175 64.4756 53.8205 64.3753 54.135 64.1559C54.4774 63.9186 55.3443 63.2702 55.3443 63.2702C55.3443 63.2702 55.3283 63.3844 55.3164 63.4479C55.3074 63.5025 55.2875 63.5333 55.2517 63.576C55.0755 63.7875 54.767 64.132 54.6137 64.2899C54.2624 64.6523 54.0524 64.7814 53.6115 64.9651C51.5811 65.8091 48.1116 67.1197 45.5089 68.0183C45.3387 68.0778 45.2651 68.1265 45.1387 68.2556C45.0013 68.3946 44.8182 68.5971 44.8182 68.5971C44.8182 68.5971 46.9401 68.751 47.5881 68.8255C47.7981 68.8493 47.9484 68.9178 48.1086 69.0559C48.6411 69.5126 50.4037 71.3227 50.9312 71.9512C50.9312 71.9512 45.92 72.7822 43.598 73.3571C43.3114 73.4276 43.168 73.6093 43.1033 73.8387C42.9113 74.5119 42.4584 76.6764 42.4584 76.6764C42.4584 76.6764 42.2972 76.6248 42.0722 76.4957C41.918 76.4073 41.8393 76.3338 41.6701 76.1551C41.1208 75.5763 40.218 74.4682 39.7841 73.8258C39.6567 73.6361 39.603 73.3948 39.7622 73.2012C40.233 72.6234 41.1785 71.5689 41.7 71.0268C41.7557 70.9682 41.8264 70.8659 41.9011 70.719C42.0765 70.3713 42.3079 69.4907 42.3884 69.1727L42.4142 69.0698L42.4176 69.0558C42.4176 69.0558 42.4126 69.0589 42.4036 69.0646L42.3084 69.1244C42.1793 69.2053 41.9707 69.3362 41.8811 69.3924C41.7468 69.4778 41.7099 69.5146 41.6542 69.6317C41.5696 69.8085 41.4213 70.0875 41.3088 70.2811C41.272 70.3446 41.1735 70.4429 41.1207 70.4836C40.4549 70.991 39.7194 71.5361 39.1959 71.9035C39.16 71.9283 39.1143 71.9174 39.0834 71.8876C39.0167 71.8211 38.737 71.5043 38.6873 71.4299C38.6455 71.3673 38.6265 71.3087 38.6265 71.2333C38.6256 71.1012 38.6385 70.8689 38.6514 70.6961C38.6674 70.4916 38.7261 70.3943 38.9759 70.1361C39.2556 69.8472 39.5601 69.5434 39.8806 69.2316C40.6659 68.5723 42.6485 66.9678 46.1887 64.4478C46.2554 64.4001 46.3161 64.3445 46.3649 64.278C46.7371 63.7776 47.7931 62.4113 48.0538 62.0866C48.0907 62.041 48.1315 61.9983 48.1782 61.9615C48.5953 61.6329 48.8013 61.4909 49.2243 61.2248C50.2106 60.6052 52.1205 59.4753 53.1905 58.8547Z" fill="white"/>
<path fill-rule="evenodd" clip-rule="evenodd" d="M45.1865 75.8818L44.7496 78.8893L43.2637 77.1498C43.5344 76.565 44.3256 76.0129 45.1865 75.8818Z" fill="white"/>
<path fill-rule="evenodd" clip-rule="evenodd" d="M54.9731 77.4775C54.2327 78.6929 53.3479 79.9836 52.679 80.7899C52.5914 80.8951 52.475 80.9765 52.3426 81.0262C51.6111 81.2992 50.3919 81.7103 49.4941 81.9833L54.9731 77.4775Z" fill="white"/>
<path fill-rule="evenodd" clip-rule="evenodd" d="M86.5634 57.9516C86.9556 57.8076 87.3855 57.8175 87.7707 57.9794C90.7585 59.2304 95.7827 62.1734 98.5755 64.2466C98.8452 64.4471 98.9527 64.5852 99.0233 64.9088C99.6792 67.8836 99.928 72.4817 99.515 76.3531C99.4851 76.6311 99.4294 76.7979 99.2841 77.0948C97.5145 80.704 95.5229 84.1007 93.4269 86.721L93.4311 86.6781C93.4583 86.3991 93.6088 84.8258 93.6169 83.9746C93.6179 83.8783 93.6627 83.7899 93.7394 83.7313C94.1285 83.4295 94.663 83.0006 94.9655 82.7394C95.1128 82.6123 95.1945 82.517 95.2711 82.3939C96.125 81.0177 97.6518 78.1363 98.2669 76.4027C98.4172 75.9797 98.4769 75.5319 98.4401 75.0841C98.243 72.6684 97.8628 69.3213 97.2965 67.1369C97.1999 66.7646 96.9531 66.4498 96.6097 66.2741C96.1211 66.0239 95.1626 65.588 92.98 64.7152C92.6774 64.5941 92.3947 64.4263 92.1459 64.2178C90.7147 63.0183 88.4773 61.2202 87.0849 60.1856C86.6779 59.8828 86.1583 59.7725 85.6627 59.8847C84.6485 60.1141 83.3576 60.4338 82.6311 60.6304C82.3842 60.6969 82.2867 60.7029 82.0319 60.6731C81.8992 60.6578 81.7277 60.641 81.5476 60.6246L81.2746 60.6007C80.9574 60.5737 80.6597 60.5508 80.5431 60.542L80.4912 60.5381C82.859 59.429 85.1372 58.4719 86.5634 57.9516Z" fill="white"/>
<path fill-rule="evenodd" clip-rule="evenodd" d="M51.3101 73.2121C51.545 73.1367 51.7948 73.1278 52.0336 73.1853C53.1105 73.4435 55.3897 74.0005 57.1125 74.4404C57.3544 74.5019 57.656 74.7273 57.7844 74.9408L58.1596 75.5634C58.291 75.7818 58.2999 76.0499 58.1835 76.2763C57.8703 76.8818 57.4236 77.7018 56.9514 78.5473L56.5942 79.1833C55.9366 80.3472 55.2817 81.4701 54.91 82.0609C54.6652 82.4511 54.5288 82.6239 54.0929 82.7778C52.3979 83.3725 50.2929 84.0835 49.0418 84.4876C48.7861 84.57 48.6995 84.7249 48.7492 85.0079C48.8388 85.5232 49.1274 87.2727 49.2379 87.783C49.2787 87.9717 49.43 88.1216 49.7107 88.068C50.4502 87.928 52.4188 87.4474 52.4188 87.4474C52.4188 87.4474 51.8386 87.9826 51.4912 88.2983C51.4275 88.3579 51.3539 88.4016 51.2713 88.4284C50.7348 88.6071 49.425 88.9735 49.017 89.0629C48.6985 89.1314 48.4954 89.0063 48.4138 88.6469C48.4138 88.6469 47.8555 86.2758 47.6534 85.4696C47.6216 85.3464 47.5897 85.2402 47.5509 85.1191C47.3996 84.6524 47.0364 83.735 46.8313 83.2544C46.8074 83.1988 46.7955 83.1392 46.7964 83.0777C46.8024 82.5286 46.904 81.3033 46.904 81.3033C46.904 81.3033 48.1093 82.4303 48.6925 82.8374C48.8239 82.9297 48.9025 82.9486 49.0637 82.9079C49.8649 82.7023 51.7072 82.0947 52.7184 81.7174C52.9493 81.631 53.1513 81.486 53.3086 81.2964C54.3546 80.0364 55.6664 78.0764 56.4238 76.598C56.5283 76.3944 56.5482 76.1611 56.4825 75.9426L56.3193 75.4065C56.2715 75.2496 56.1053 75.0729 55.9521 75.0143C54.1695 74.3381 52.7642 73.8357 51.113 73.2747L51.3101 73.2121Z" fill="white"/>
<path fill-rule="evenodd" clip-rule="evenodd" d="M83.2508 67.1475L83.8669 67.4146C84.049 67.493 84.2152 67.6082 84.3526 67.7511C88.1296 71.683 91.1503 75.7599 91.7554 76.8342C91.8719 77.0408 91.9515 77.2473 91.9804 77.4836C92.6591 83.2176 92.0759 89.2922 90.6895 94.5765C90.5641 95.053 90.4238 95.2973 89.9639 95.6418C88.4838 96.7523 86.2743 98.523 84.0769 100.328L83.3843 100.899C80.7374 103.085 78.2228 105.225 77.1557 106.209C76.888 106.458 76.6541 106.738 76.463 107.048C75.9626 107.86 75.1986 109.256 74.8235 109.949L74.7187 110.142C74.6434 110.282 74.5998 110.364 74.5998 110.364C74.1022 109.28 73.0173 106.637 72.6451 105.569C72.5237 105.22 72.5018 105.038 72.6302 104.571C73.2373 102.356 76.1067 95.9159 76.665 94.7512L76.666 95.2278C76.666 95.2973 76.655 95.3658 76.6331 95.4313C76.3813 96.1929 74.8386 101.269 74.5251 103.47C74.4555 103.959 74.4614 104.091 74.5251 104.572C74.6625 105.6 75.2785 107.484 75.2785 107.484C75.2785 107.484 75.6438 106.724 75.9842 106.209C76.1514 105.957 76.2519 105.836 76.5246 105.566C77.9041 104.205 80.2575 102.101 82.7087 99.9862L83.5765 99.2404C85.4593 97.6284 87.3392 96.0598 88.8243 94.8614C89.2104 94.5496 89.3548 94.3411 89.4403 93.7494C89.8663 90.8342 89.9897 85.6016 89.733 81.7938C89.6842 81.0749 89.4503 80.3799 89.0442 79.7832C88.1127 78.41 86.9989 77.1103 85.3099 75.4412C85.0691 75.2019 84.9049 74.8961 84.8432 74.5625C84.3505 71.9412 83.2508 67.1475 83.2508 67.1475Z" fill="white"/>
<path fill-rule="evenodd" clip-rule="evenodd" d="M63.3647 69.0557C63.3647 69.0557 63.708 70.1646 64.039 71.3688L64.1547 71.7961C64.3638 72.5808 64.5503 73.3554 64.6178 73.8454C64.6825 74.3171 64.6715 74.4442 64.5033 74.8959C64.0955 75.9781 63.3449 77.7187 62.5442 79.4982L62.1989 80.2615C61.2165 82.4204 60.2219 84.506 59.7389 85.4088C59.5011 85.8536 59.2771 86.1436 58.8293 86.5973C57.8071 87.6349 55.8504 89.5959 54.6391 90.693C54.1992 91.0922 54.0808 91.4328 53.9912 91.9491C53.8469 92.7781 53.7036 94.193 53.6638 94.9238C53.6289 95.5662 53.7334 95.8671 54.0927 96.5035C56.2276 100.301 63.3548 109.039 65.3852 110.874C65.5325 111.007 65.6399 111.096 65.9505 111.302C66.2491 111.5 67.2224 112.13 67.2224 112.13C67.2612 112.157 67.2941 112.192 67.319 112.233L67.6713 112.852C67.6713 112.852 67.6384 112.835 67.579 112.806L67.4269 112.731C67.3045 112.67 67.1427 112.589 66.9568 112.497L66.5043 112.271C65.8107 111.924 64.9839 111.506 64.5491 111.273C64.37 111.177 64.2018 111.063 64.0455 110.933C61.6678 108.963 54.3814 100.459 52.2385 96.9086C51.7041 96.022 51.6493 95.735 51.721 94.896C51.8553 93.3342 52.0634 91.3702 52.2455 90.5094C52.356 89.9901 52.4704 89.6852 52.8695 89.2265C54.2107 87.6867 55.8466 85.654 57.4407 83.5682L58.001 82.8306C60.4169 79.6308 62.6423 76.4282 63.4732 74.7966C63.6633 74.4253 63.6792 74.2962 63.6832 73.9457C63.6942 72.929 63.3687 70.9491 63.2831 70.4487C63.2702 70.3703 63.2662 70.2908 63.2731 70.2114L63.3647 69.0557Z" fill="white"/>
<path fill-rule="evenodd" clip-rule="evenodd" d="M69.8788 81.6409C69.8788 81.6409 70.1535 83.2663 70.2371 83.7379C70.2839 84.005 70.2938 84.0765 70.2261 84.3386C70.0066 85.1815 68.9925 89.6243 68.1807 94.1722L68.0543 94.8906C67.7226 96.8061 67.4361 98.7076 67.2692 100.334C67.1746 101.259 67.2055 101.48 67.4503 102.3C68.144 104.618 70.7098 110.672 71.2025 111.777C71.2573 111.899 71.2901 112.027 71.306 112.159L71.4911 113.587C70.669 112.348 66.2022 104.16 64.4476 99.6254C64.2405 99.0912 64.2007 98.828 64.4296 97.8461C65.6499 92.6363 68.9512 83.7836 69.8788 81.6409Z" fill="white"/>
</g>
</svg>
