<svg preserveAspectRatio="none" width="100%" height="100%" overflow="visible" style="display: block;" viewBox="0 0 93.3333 102.436" fill="none" xmlns="http://www.w3.org/2000/svg">
<g id="Peugeot_Logo" clip-path="url(#clip0_5_451)">
<g id="Mask group">
<mask id="mask0_5_451" style="mask-type:alpha" maskUnits="userSpaceOnUse" x="0" y="0" width="94" height="103">
<g id="Group">
<path id="use1496" d="M93.3334 102.682H6.99528e-05V0.01512H93.3334V102.682Z" fill="var(--fill-0, black)"/>
</g>
</mask>
<g mask="url(#mask0_5_451)">
<path id="Fill-1" fill-rule="evenodd" clip-rule="evenodd" d="M44.5761 101.465C31.5265 95.3951 20.1925 85.4475 12.6602 73.4583C5.14609 61.5039 1.19714 47.6586 0.23099 29.8825C-0.0767205 24.2114 -0.0767205 17.1373 0.229336 8.26005L0.368302 4.20852L4.36689 3.53851C18.4372 1.19097 32.6697 -0.000165441 46.6672 -0.000165441C60.6647 -0.000165441 74.8955 1.19097 88.9642 3.53851L92.9628 4.20852L93.1034 8.26005C93.4111 17.139 93.4111 24.213 93.1017 29.8825C92.1339 47.6586 88.1866 61.5039 80.6725 73.4583C73.1419 85.4475 61.8046 95.3951 48.7566 101.465L46.6672 102.436L44.5761 101.465Z" fill="var(--fill-0, black)"/>
</g>
</g>
<path id="Combined-Shape" fill-rule="evenodd" clip-rule="evenodd" d="M46.667 2.92068C32.556 2.92068 17.9085 4.12134 3.04208 6.67807C2.82014 12.6166 2.56715 21.7959 2.99213 29.5852C3.93864 46.9521 7.77536 60.4317 15.0668 72.007C22.3363 83.5486 33.5941 93.4726 46.667 99.3665C59.74 93.4726 70.9967 83.5486 78.2662 72.007C85.5586 60.4317 89.394 46.9521 90.3415 29.5852C90.7645 21.7959 90.5128 12.6166 90.2909 6.67807C75.4244 4.12134 60.7781 2.92068 46.667 2.92068ZM46.667 4.59375C60.577 4.59375 74.7011 5.77248 88.6648 8.09885C88.9714 16.9089 88.9712 23.9186 88.6667 29.4948C87.7361 46.5658 83.981 59.7924 76.8469 71.1174C69.7137 82.4415 59.0164 91.7957 46.667 97.5268C34.3166 91.7957 23.6203 82.4415 16.4872 71.1174C9.35304 59.7924 5.59698 46.5658 4.6674 29.4948C4.36284 23.9186 4.36267 16.9089 4.66922 8.09885C18.633 5.77248 32.756 4.59375 46.667 4.59375Z" fill="var(--fill-0, white)"/>
<path id="path75" fill-rule="evenodd" clip-rule="evenodd" d="M17.4821 12.5624C17.3452 12.5591 17.1993 12.5655 17.045 12.5814C14.9788 12.7969 12.9156 13.034 10.8544 13.2942V19.3816C11.2117 19.3359 11.57 19.2922 11.9273 19.2485V17.3651C13.6313 17.1566 15.3381 16.9639 17.045 16.7861C18.2791 16.6581 18.9689 16.143 18.9689 14.8681V14.179C18.9689 13.0887 18.4409 12.5859 17.4821 12.5624ZM17.3636 13.5304C17.6413 13.5016 17.92 13.7122 17.92 13.9912V15.2243C17.92 15.4894 17.6413 15.7428 17.3636 15.7726C15.5502 15.9583 13.7378 16.1629 11.9273 16.3833V14.1422C13.7378 13.9208 15.5502 13.7171 17.3636 13.5304Z" fill="var(--fill-0, white)"/>
<path id="path89" fill-rule="evenodd" clip-rule="evenodd" d="M44.687 11.0528C46.6189 11.0389 48.5507 11.0458 50.4816 11.0716V12.0526C48.4174 12.0258 46.3521 12.0198 44.287 12.0367C44.0073 12.0397 43.7276 12.281 43.7276 12.56V15.6102C43.7276 15.8892 44.0073 16.1652 44.287 16.1622C46.1392 16.1464 47.9904 16.1493 49.8426 16.1702V14.525C48.7677 14.513 47.6928 14.5071 46.6189 14.5081V13.5261C48.0441 13.5261 49.4694 13.537 50.8946 13.5579V17.1651C48.8921 17.1353 46.8896 17.1274 44.8871 17.1393C43.4211 17.1492 42.6756 16.897 42.6756 15.4771V12.8241C42.6756 11.4986 43.3414 11.0627 44.687 11.0528V11.0528Z" fill="var(--fill-0, white)"/>
<path id="path81" fill-rule="evenodd" clip-rule="evenodd" d="M65.6093 11.6893C64.4546 11.6925 63.9352 12.0569 63.9352 13.2515V15.9698C63.9352 17.4165 64.6804 17.6988 66.1434 17.7971C67.4871 17.8885 68.8287 17.9895 70.1714 18.0997C71.6195 18.2189 72.3771 17.9725 72.3771 16.6053V13.887C72.3771 12.4939 71.5 12.1215 70.1714 12.0123C68.8287 11.9011 67.4871 11.8009 66.1434 11.7086C65.9522 11.6957 65.7743 11.6888 65.6093 11.6893ZM65.5455 12.6507C67.2882 12.7649 69.0289 12.896 70.7696 13.043C71.0483 13.0668 71.3271 13.3297 71.3271 13.6474V16.6593C71.3271 16.9373 71.0483 17.1924 70.7696 17.1686C69.0289 17.0216 67.2882 16.8904 65.5455 16.7752C65.226 16.7534 64.9859 16.4607 64.9859 16.1817V13.1709C64.9859 12.8522 65.226 12.6288 65.5455 12.6507Z" fill="var(--fill-0, white)"/>
<path id="path85" fill-rule="evenodd" clip-rule="evenodd" d="M40.0394 11.1227V15.5262C40.0394 16.9192 39.3059 17.225 37.8279 17.2707C36.541 17.3104 35.2541 17.3581 33.9672 17.4157C32.5957 17.4772 31.7577 17.2171 31.7577 15.838V11.4344L32.8087 11.3808V15.97C32.8087 16.249 33.0486 16.4764 33.3671 16.4615C35.0541 16.3831 36.7401 16.3195 38.4271 16.2709C38.7475 16.2619 38.9605 16.0177 38.9605 15.7387V11.1495C39.3198 11.1395 39.6791 11.1306 40.0394 11.1227V11.1227Z" fill="var(--fill-0, white)"/>
<path id="path83" fill-rule="evenodd" clip-rule="evenodd" d="M53.5253 11.128C56.117 11.1896 58.7077 11.2869 61.2984 11.4199V12.4009C59.0591 12.2867 56.8187 12.1984 54.5773 12.1368V13.6351C56.5709 13.6907 58.5634 13.7662 60.555 13.8625V14.8445C58.5634 14.7481 56.5709 14.6717 54.5773 14.6171V16.2613C56.8187 16.3229 59.0591 16.4113 61.2984 16.5264V17.5074C58.7077 17.3754 56.117 17.2781 53.5253 17.2155V11.128Z" fill="var(--fill-0, white)"/>
<path id="path79" fill-rule="evenodd" clip-rule="evenodd" d="M29.1211 11.5839V12.5649C26.8827 12.7029 24.6453 12.8667 22.41 13.0563V14.5556C24.3985 14.3858 26.3881 14.2379 28.3786 14.1108V15.0928C26.3881 15.2199 24.3985 15.3678 22.41 15.5366V17.1819C24.6453 16.9912 26.8827 16.8274 29.1211 16.6904V17.6714C26.5324 17.8302 23.9457 18.0248 21.3599 18.2542V12.1657C23.9457 11.9363 26.5324 11.7427 29.1211 11.5839V11.5839Z" fill="var(--fill-0, white)"/>
<path id="path77" fill-rule="evenodd" clip-rule="evenodd" d="M74.3246 12.3839C77.0457 12.6481 79.7648 12.9519 82.4789 13.2934V14.2754C81.3055 14.1275 80.1301 13.9865 78.9537 13.8534V18.96C78.5964 18.9192 78.2391 18.8795 77.8798 18.8398V13.7333C76.6964 13.6032 75.51 13.4811 74.3246 13.3659V12.3839Z" fill="var(--fill-0, white)"/>
<path id="path73" fill-rule="evenodd" clip-rule="evenodd" d="M38.3216 24.0334C43.3179 23.5955 50.0788 23.4764 56.5371 23.9639C56.9044 23.9917 57.2617 24.0781 57.6011 24.2211C59.717 25.1087 63.4712 27.0508 67.6454 29.4328C67.8295 29.5381 68.0027 29.6612 68.162 29.8012C69.2677 30.7732 72.0694 33.6328 72.0694 33.6328L71.1956 33.46C71.0732 33.4362 70.9587 33.3886 70.8552 33.319C69.0876 32.1345 66.5068 30.5925 64.3441 29.5053C64.0873 29.3772 63.8096 29.2948 63.524 29.265C62.472 29.1528 61.0497 29.0545 60.1191 29.0168C59.6603 28.9979 59.3478 28.9215 58.8989 28.6941C58.041 28.2602 55.9629 27.3199 54.9278 26.9257C54.4849 26.7569 54.2589 26.7172 53.825 26.7242C52.0464 26.75 47.9947 26.8791 45.9255 27.0072C45.8538 27.0111 45.7851 27.0081 45.7155 26.9972L44.7292 26.8433C47.5259 26.3627 54.4391 25.7481 57.3005 25.5982L56.136 25.21C55.9111 25.1355 55.6772 25.0958 55.4393 25.0898C54.8182 25.0751 53.4368 25.0475 51.6437 25.0451L51.0312 25.0453C48.3152 25.0506 44.8208 25.117 41.598 25.3589C41.3163 25.3798 41.0416 25.4473 40.7829 25.5615C39.4811 26.1319 36.3066 27.8489 33.1228 29.6126L32.4159 30.0049C31.5928 30.4623 30.7783 30.9175 30.005 31.3511C30.005 31.3511 30.4021 30.8417 30.4788 30.7424C30.5464 30.6561 30.5673 30.6402 30.6589 30.5806C30.7868 30.4969 31.2236 30.2099 31.664 29.9187L31.9902 29.7026C32.2546 29.527 32.4906 29.3692 32.6236 29.2779C32.6893 29.2332 32.7311 29.2015 32.8137 29.1399C33.7721 28.419 35.285 27.1481 36.1867 26.3607C36.3907 26.183 36.5639 25.9765 36.7062 25.7461C36.9978 25.2755 37.3163 24.7651 37.5124 24.4822C37.6796 24.2369 37.9652 24.0651 38.3216 24.0334V24.0334Z" fill="var(--fill-0, white)"/>
<path id="path71" fill-rule="evenodd" clip-rule="evenodd" d="M40.7421 28.8496C40.8565 28.8486 40.9282 28.9717 40.8715 29.07L38.4569 33.2174C38.3226 33.4616 38.0976 33.6433 37.8309 33.7238L33.3034 35.1367C32.7779 35.2955 32.334 35.3809 31.7866 35.4226C30.7823 35.4981 27.7995 35.5914 27.7995 35.5914L27.8652 35.4504C27.896 35.3839 27.9508 35.3313 28.0184 35.3025L29.4297 34.7047C29.5352 34.6601 29.6278 34.5916 29.6985 34.5032L31.8781 31.8263C31.9946 31.6833 32.1468 31.5463 32.3091 31.4609C33.7492 30.7053 36.3101 29.5704 38.1036 28.9727C38.2728 28.9161 38.5007 28.8804 38.6789 28.8784L40.7421 28.8496Z" fill="var(--fill-0, white)"/>
<path id="path69" fill-rule="evenodd" clip-rule="evenodd" d="M29.4739 36.3012C29.5685 36.2933 29.6581 36.3459 29.6949 36.4323C29.8193 36.7212 29.7855 37.0439 29.665 37.32C29.6183 37.4322 29.4739 37.5414 29.3555 37.5672L28.3652 37.7866C28.3055 37.7995 28.2507 37.7519 28.2547 37.6913L28.3473 36.5316C28.3543 36.4531 28.416 36.3906 28.4946 36.3846L29.4739 36.3012Z" fill="var(--fill-0, white)"/>
<path id="path67" fill-rule="evenodd" clip-rule="evenodd" d="M51.4349 31.404C51.5832 31.3782 51.7355 31.3991 51.8719 31.4636L52.906 31.9571C53.0075 32.0057 53.0821 32.0981 53.109 32.2093C53.2493 32.7991 53.4215 33.5805 53.537 34.2447C53.5837 34.5208 53.532 34.8027 53.3917 35.046C52.9637 35.7877 52.0849 37.1222 51.5932 37.839C51.4837 37.9999 51.4708 38.1945 51.5046 38.3861C51.7276 39.6154 52.6571 43.9077 52.6571 43.9077L52.0719 43.3765C51.9555 43.2692 51.8788 43.1561 51.8291 43.0081C51.413 41.7938 50.6347 39.2569 50.2764 38.0227C50.2187 37.8192 50.2625 37.6017 50.3969 37.4399C51.007 36.7012 51.8958 35.5196 52.4153 34.771C52.5606 34.5605 52.6084 34.3281 52.5228 34.1544C52.4033 33.9101 52.2023 33.5388 52.0092 33.2022C51.9575 33.1088 51.8709 33.0393 51.7684 33.0056L51.0667 32.7812C50.9443 32.7425 50.8129 32.7444 50.6915 32.7882C49.1627 33.3412 47.1065 34.1385 45.8484 34.6588C45.6643 34.7352 45.5887 34.7412 45.3657 34.7074C45.0015 34.6538 43.9405 34.4642 43.42 34.3669C43.3264 34.349 43.2796 34.2437 43.3274 34.1613L43.9445 33.095C44.0281 32.951 44.1664 32.8487 44.3297 32.812C46.3142 32.3612 48.9388 31.8429 51.4349 31.404V31.404Z" fill="var(--fill-0, white)"/>
<path id="path65" fill-rule="evenodd" clip-rule="evenodd" d="M29.8571 32.5215L29.451 33.02C29.4282 33.0418 29.4063 33.0627 29.3834 33.0855C29.0261 33.3486 27.5222 34.4974 27.1151 34.8191C26.9997 34.9105 26.9539 34.9899 26.927 35.1339C26.8354 35.6422 26.6832 36.6083 26.6384 37.1435C26.6255 37.3004 26.5578 37.3778 26.3975 37.4424C25.6998 37.7254 24.8728 38.0232 24.2039 38.2903C24.0606 38.3469 24.0208 38.3688 23.9362 38.4333C23.8695 38.4849 22.9807 39.2763 22.9807 39.2763C22.9807 39.2763 24.9126 38.8017 25.6212 38.6418C25.7904 38.6041 25.8631 38.614 26.0193 38.6875C26.1656 38.755 26.4095 38.8513 26.5379 38.898C26.7349 38.9705 26.8394 38.9675 27.0574 38.9198C27.8556 38.7421 29.1982 38.4244 29.9128 38.2387C30.2841 38.1424 30.4871 38.0421 30.8016 37.8227C31.144 37.5854 32.0109 36.937 32.0109 36.937C32.0109 36.937 31.995 37.0512 31.983 37.1147C31.974 37.1693 31.9542 37.2001 31.9183 37.2428C31.7422 37.4543 31.4336 37.7988 31.2804 37.9567C30.929 38.3191 30.719 38.4482 30.2781 38.6319C28.2478 39.4759 24.7782 40.7865 22.1756 41.6851C22.0054 41.7446 21.9317 41.7933 21.8053 41.9224C21.668 42.0614 21.4848 42.2639 21.4848 42.2639C21.4848 42.2639 23.6068 42.4178 24.2547 42.4923C24.4647 42.5161 24.615 42.5846 24.7752 42.7227C25.3077 43.1794 27.0703 44.9895 27.5978 45.618C27.5978 45.618 22.5866 46.449 20.2646 47.0239C19.978 47.0944 19.8347 47.2761 19.77 47.5055C19.5779 48.1787 19.125 50.3432 19.125 50.3432C19.125 50.3432 18.9638 50.2916 18.7389 50.1625C18.5846 50.0741 18.506 50.0006 18.3368 49.8219C17.7874 49.2431 16.8847 48.135 16.4507 47.4926C16.3233 47.3029 16.2696 47.0616 16.4288 46.868C16.8996 46.2902 17.8451 45.2357 18.3666 44.6936C18.4224 44.635 18.493 44.5327 18.5677 44.3858C18.7432 44.0381 18.9745 43.1575 19.0551 42.8395L19.0808 42.7366L19.0842 42.7226C19.0842 42.7226 19.0792 42.7257 19.0702 42.7314L18.975 42.7911C18.8459 42.8721 18.6373 43.003 18.5478 43.0592C18.4134 43.1446 18.3766 43.1814 18.3208 43.2985C18.2362 43.4753 18.0879 43.7543 17.9755 43.9479C17.9386 44.0114 17.8401 44.1097 17.7874 44.1504C17.1215 44.6578 16.386 45.2029 15.8625 45.5703C15.8267 45.5951 15.7809 45.5842 15.75 45.5544C15.6833 45.4879 15.4037 45.1711 15.3539 45.0967C15.3121 45.0341 15.2931 44.9755 15.2931 44.9001C15.2922 44.768 15.3051 44.5357 15.3181 44.3629C15.334 44.1584 15.3927 44.0611 15.6425 43.8029C15.9222 43.514 16.2268 43.2102 16.5472 42.8984C17.3325 42.2391 19.3151 40.6346 22.8553 38.1146C22.922 38.0669 22.9827 38.0113 23.0315 37.9448C23.4037 37.4444 24.4597 36.0781 24.7205 35.7534C24.7573 35.7078 24.7981 35.6651 24.8449 35.6283C25.2619 35.2997 25.4679 35.1577 25.8909 34.8916C26.8772 34.272 28.7872 33.1421 29.8571 32.5215L29.8571 32.5215Z" fill="var(--fill-0, white)"/>
<path id="path63" fill-rule="evenodd" clip-rule="evenodd" d="M21.8532 49.5487L21.4163 52.5562L19.9303 50.8166C20.201 50.2318 20.9923 49.6797 21.8532 49.5487Z" fill="var(--fill-0, white)"/>
<path id="path61" fill-rule="evenodd" clip-rule="evenodd" d="M31.6398 51.1443C30.8993 52.3596 30.0145 53.6504 29.3456 54.4566C29.2581 54.5618 29.1416 54.6433 29.0092 54.6929C28.2777 54.966 27.0585 55.377 26.1608 55.6501L31.6398 51.1443Z" fill="var(--fill-0, white)"/>
<path id="path59" fill-rule="evenodd" clip-rule="evenodd" d="M63.2301 31.6182C63.6222 31.4742 64.0522 31.4842 64.4373 31.646C67.4252 32.8971 72.4493 35.84 75.2421 37.9132C75.5118 38.1138 75.6193 38.2518 75.69 38.5755C76.3458 41.5502 76.5947 46.1484 76.1816 50.0197C76.1518 50.2977 76.096 50.4645 75.9507 50.7614C74.1811 54.3706 72.1896 57.7673 70.0935 60.3876L70.0977 60.3447C70.125 60.0657 70.2754 58.4924 70.2836 57.6412C70.2845 57.5449 70.3293 57.4566 70.406 57.398C70.7951 57.0961 71.3296 56.6672 71.6322 56.4061C71.7795 56.279 71.8611 56.1836 71.9377 56.0605C72.7917 54.6844 74.3184 51.803 74.9335 50.0693C75.0838 49.6464 75.1435 49.1986 75.1067 48.7508C74.9096 46.335 74.5294 42.9879 73.9631 40.8036C73.8666 40.4312 73.6197 40.1165 73.2764 39.9407C72.7877 39.6905 71.8292 39.2546 69.6466 38.3819C69.344 38.2607 69.0614 38.0929 68.8125 37.8844C67.3813 36.685 65.1439 34.8868 63.7516 33.8522C63.3445 33.5494 62.825 33.4392 62.3293 33.5514C61.3151 33.7807 60.0242 34.1005 59.2977 34.2971C59.0509 34.3636 58.9533 34.3695 58.6985 34.3397C58.5658 34.3244 58.3943 34.3076 58.2142 34.2913L57.9412 34.2673C57.624 34.2403 57.3263 34.2174 57.2097 34.2086L57.1578 34.2047C59.5256 33.0957 61.8038 32.1385 63.23 31.6182L63.2301 31.6182Z" fill="var(--fill-0, white)"/>
<path id="path57" fill-rule="evenodd" clip-rule="evenodd" d="M27.9766 46.8788C28.2115 46.8034 28.4613 46.7945 28.7002 46.852C29.7771 47.1102 32.0563 47.6672 33.7791 48.1071C34.021 48.1686 34.3225 48.394 34.4509 48.6075L34.8261 49.23C34.9575 49.4485 34.9665 49.7166 34.85 49.943C34.5368 50.5485 34.0902 51.3685 33.618 52.214L33.2607 52.85C32.6032 54.0139 31.9483 55.1368 31.5766 55.7276C31.3317 56.1178 31.1954 56.2906 30.7594 56.4445C29.0645 57.0392 26.9595 57.7502 25.7084 58.1543C25.4526 58.2367 25.366 58.3916 25.4158 58.6746C25.5054 59.1899 25.794 60.9394 25.9045 61.4497C25.9453 61.6384 26.0966 61.7883 26.3772 61.7347C27.1167 61.5947 29.0854 61.1141 29.0854 61.1141C29.0854 61.1141 28.5051 61.6493 28.1578 61.965C28.0941 62.0246 28.0204 62.0683 27.9378 62.0951C27.4014 62.2738 26.0916 62.6402 25.6835 62.7296C25.365 62.7981 25.162 62.673 25.0804 62.3136C25.0804 62.3136 24.522 59.9425 24.32 59.1363C24.2881 59.0131 24.2563 58.9069 24.2175 58.7858C24.0662 58.3191 23.7029 57.4017 23.4979 56.9211C23.474 56.8655 23.4621 56.8059 23.463 56.7444C23.469 56.1953 23.5705 54.97 23.5705 54.97C23.5705 54.97 24.7758 56.097 25.3591 56.5041C25.4904 56.5964 25.5691 56.6153 25.7303 56.5746C26.5315 56.369 28.3738 55.7614 29.385 55.3841C29.6159 55.2977 29.8179 55.1527 29.9752 54.9631C31.0212 53.7031 32.333 51.7431 33.0904 50.2647C33.1949 50.0611 33.2148 49.8278 33.1491 49.6093L32.9859 49.0732C32.9381 48.9163 32.7719 48.7396 32.6186 48.681C30.8361 48.0048 29.4307 47.5024 27.7796 46.9414L27.9766 46.8788Z" fill="var(--fill-0, white)"/>
<path id="path55" fill-rule="evenodd" clip-rule="evenodd" d="M59.9173 40.8142L60.5334 41.0813C60.7155 41.1597 60.8817 41.2749 61.0191 41.4179C64.7961 45.3498 67.8168 49.4266 68.4219 50.501C68.5384 50.7075 68.618 50.914 68.6469 51.1503C69.3256 56.8843 68.7424 62.9589 67.356 68.2432C67.2306 68.7198 67.0903 68.964 66.6304 69.3086C65.1503 70.419 62.9408 72.1897 60.7434 73.9951L60.0508 74.5656C57.4039 76.7514 54.8893 78.8915 53.8222 79.8761C53.5545 80.1243 53.3206 80.4043 53.1295 80.7151C52.6291 81.5263 51.8651 82.9223 51.49 83.6152L51.3852 83.8092C51.3099 83.9488 51.2663 84.0304 51.2663 84.0304C50.7687 82.9471 49.6838 80.304 49.3116 79.2356C49.1902 78.8871 49.1683 78.7044 49.2967 78.2378C49.9038 76.0226 52.7732 69.5826 53.3315 68.4179L53.3325 68.8945C53.3325 68.964 53.3215 69.0325 53.2996 69.0981C53.0478 69.8596 51.5051 74.9354 51.1916 77.1366C51.122 77.6261 51.1279 77.7582 51.1916 78.2387C51.329 79.2664 51.945 81.1509 51.945 81.1509C51.945 81.1509 52.3103 80.3904 52.6507 79.8761C52.8179 79.6239 52.9184 79.5027 53.1911 79.2326C54.5706 77.8717 56.924 75.7682 59.3752 73.653L60.243 72.9071C62.1258 71.2951 64.0057 69.7265 65.4908 68.5281C65.8769 68.2164 66.0213 68.0079 66.1068 67.4161C66.5328 64.5009 66.6562 59.2683 66.3995 55.4605C66.3507 54.7417 66.1168 54.0466 65.7107 53.4499C64.7792 52.0767 63.6654 50.777 61.9764 49.1079C61.7356 48.8686 61.5714 48.5628 61.5097 48.2292C61.017 45.6079 59.9172 40.8142 59.9172 40.8142H59.9173Z" fill="var(--fill-0, white)"/>
<path id="path53" fill-rule="evenodd" clip-rule="evenodd" d="M40.0312 42.7224C40.0312 42.7224 40.3745 43.8313 40.7055 45.0356L40.8212 45.4629C41.0303 46.2476 41.2168 47.0222 41.2843 47.5122C41.349 47.9838 41.338 48.1109 41.1698 48.5627C40.762 49.6449 40.0114 51.3855 39.2107 53.165L38.8654 53.9282C37.883 56.0872 36.8884 58.1728 36.4054 59.0756C36.1676 59.5204 35.9436 59.8103 35.4958 60.2641C34.4736 61.3017 32.5169 63.2627 31.3056 64.3598C30.8657 64.759 30.7473 65.0995 30.6577 65.6159C30.5134 66.4449 30.3701 67.8598 30.3303 68.5906C30.2954 69.233 30.3999 69.5339 30.7592 70.1703C32.8941 73.9682 40.0213 82.7057 42.0517 84.5406C42.199 84.6737 42.3064 84.763 42.617 84.9686C42.9156 85.1671 43.8889 85.7966 43.8889 85.7966C43.9278 85.8234 43.9606 85.8592 43.9855 85.8999L44.3378 86.5185C44.3378 86.5185 44.3049 86.5022 44.2455 86.4728L44.0934 86.3974C43.971 86.3367 43.8092 86.2563 43.6233 86.1637L43.1708 85.9378C42.4772 85.5907 41.6504 85.1731 41.2156 84.9398C41.0365 84.8435 40.8683 84.7303 40.712 84.6002C38.3343 82.6303 31.0479 74.126 28.905 70.5754C28.3706 69.6887 28.3158 69.4018 28.3875 68.5628C28.5219 67.0009 28.7299 65.037 28.912 64.1761C29.0225 63.6569 29.1369 63.352 29.536 62.8933C30.8772 61.3535 32.5131 59.3208 34.1072 57.235L34.6675 56.4974C37.0834 53.2976 39.3088 50.095 40.1397 48.4634C40.3298 48.0921 40.3457 47.963 40.3497 47.6125C40.3607 46.5958 40.0352 44.6159 39.9496 44.1155C39.9367 44.0371 39.9327 43.9576 39.9396 43.8782L40.0312 42.7224Z" fill="var(--fill-0, white)"/>
<path id="path51" fill-rule="evenodd" clip-rule="evenodd" d="M46.5453 55.3075C46.5453 55.3075 46.82 56.9329 46.9036 57.4045C46.9504 57.6716 46.9604 57.7431 46.8927 58.0052C46.6732 58.8481 45.659 63.2909 44.8472 67.8388L44.7209 68.5573C44.3892 70.4728 44.1026 72.3743 43.9357 74.0009C43.8412 74.9253 43.872 75.1467 44.1169 75.9669C44.8106 78.2843 47.3764 84.3391 47.8691 85.4432C47.9238 85.5653 47.9567 85.6934 47.9726 85.8254L48.1577 87.2532C47.3356 86.0151 42.8688 77.8266 41.1141 73.292C40.9071 72.7578 40.8673 72.4947 41.0962 71.5127C42.3164 66.3029 45.6177 57.4502 46.5453 55.3075H46.5453Z" fill="var(--fill-0, white)"/>
</g>
<defs>
<clipPath id="clip0_5_451">
<rect width="93.3333" height="102.436" fill="white"/>
</clipPath>
</defs>
</svg>
