<svg preserveAspectRatio="none" width="100%" height="100%" overflow="visible" style="display: block;" viewBox="0 0 14.1733 17.4208" fill="none" xmlns="http://www.w3.org/2000/svg">
<g id="Logo">
<path id="Path" fill-rule="evenodd" clip-rule="evenodd" d="M11.8379 9.26433C11.8553 7.90715 12.5668 6.65353 13.7231 5.94268C12.9904 4.89619 11.8071 4.25649 10.5302 4.21654C9.18678 4.07553 7.88442 5.0204 7.19985 5.0204C6.50203 5.0204 5.44803 4.23054 4.31305 4.25389C2.81971 4.30213 1.46126 5.1306 0.734714 6.43618C-0.812486 9.11492 0.341586 13.0518 1.82367 15.217C2.56519 16.2773 3.43182 17.4617 4.56578 17.4197C5.67543 17.3737 6.08986 16.7121 7.4293 16.7121C8.75631 16.7121 9.14513 17.4197 10.3021 17.393C11.4928 17.3737 12.243 16.328 12.9585 15.2577C13.4913 14.5022 13.9013 13.6672 14.1732 12.7837C12.759 12.1855 11.8395 10.7998 11.8379 9.26433Z" fill="var(--fill-0, white)"/>
<path id="Path 2" fill-rule="evenodd" clip-rule="evenodd" d="M9.65194 2.7925C10.3012 2.01313 10.621 1.01139 10.5436 0C9.55169 0.104176 8.63548 0.578224 7.97749 1.32769C7.32775 2.06714 6.9986 3.03453 7.06252 4.0168C8.06769 4.02715 9.02207 3.57591 9.65194 2.7925Z" fill="var(--fill-0, white)"/>
</g>
</svg>
