<svg preserveAspectRatio="none" width="100%" height="100%" overflow="visible" style="display: block;" viewBox="0 0 60.0484 12.4961" fill="none" xmlns="http://www.w3.org/2000/svg">
<path id="App Store" d="M13.5359 2.78129C15.3742 2.7813 16.5859 4.23442 16.5859 6.47895C16.5859 8.72974 15.3812 10.1758 13.5633 10.1758C12.6236 10.225 11.7384 9.73279 11.2844 8.90862H11.25V12.4961H9.76326V2.85707H11.2023V4.06176H11.2297C11.7039 3.24276 12.59 2.75078 13.5359 2.78129ZM21.5078 2.7813C23.3461 2.7813 24.5578 4.23442 24.5578 6.47895C24.5578 8.72974 23.3531 10.1758 21.5352 10.1758C20.5955 10.225 19.7103 9.73279 19.2562 8.90862H19.2218V12.4961H17.7351V2.85707H19.1742V4.06176H19.2015C19.6758 3.24276 20.5619 2.75079 21.5078 2.7813ZM32.1813 0C34.2805 0 35.7195 1.17734 35.768 2.89141H34.2672C34.1773 1.9 33.3578 1.30157 32.1601 1.30157C30.9625 1.30157 30.143 1.90704 30.143 2.78829C30.143 3.49063 30.6664 3.90391 31.9469 4.22029L33.0414 4.48904C35.0797 4.97107 35.9265 5.78984 35.9265 7.24294C35.9265 9.10154 34.4461 10.2656 32.0914 10.2656C29.8883 10.2656 28.4008 9.12888 28.3047 7.332L29.8266 7.33207C29.9367 8.31723 30.8938 8.96407 32.2016 8.96407C33.4547 8.96407 34.3563 8.3172 34.3563 7.42891C34.3563 6.65782 33.8125 6.19611 32.525 5.8797L31.2375 5.56954C29.4133 5.12891 28.5664 4.27578 28.5664 2.89141C28.5664 1.17734 30.0602 0 32.1813 0ZM44.7453 2.76802C46.8453 2.76802 48.1813 4.20002 48.1813 6.47895C48.1813 8.76411 46.8524 10.1899 44.7453 10.1899C42.6391 10.1899 41.3102 8.7641 41.3102 6.47895C41.3102 4.20005 42.6524 2.76802 44.7453 2.76802ZM56.7844 2.76801C58.7883 2.76801 60.0484 4.14457 60.0484 6.34066V6.85004H54.9328V6.93988C54.8851 7.47911 55.0713 8.01286 55.444 8.40538C55.8168 8.7979 56.3403 9.01135 56.8813 8.99144C57.6027 9.05904 58.2829 8.64475 58.5539 7.97269L59.9656 7.9727C59.7656 9.28754 58.4852 10.1899 56.8469 10.1899C54.7398 10.1899 53.432 8.77816 53.432 6.51332C53.432 4.24145 54.7469 2.76801 56.7844 2.76801ZM39.1352 1.14301V2.85707H40.5125V4.03442H39.1352V8.02738C39.1352 8.6477 39.4109 8.93676 40.0164 8.93676C40.1799 8.93391 40.3432 8.92243 40.5055 8.90236V10.0727C40.2332 10.1235 39.9566 10.1466 39.6797 10.1414C38.2133 10.1414 37.6414 9.59064 37.6414 8.18595V4.03442H36.5883V2.85707H37.6414V1.14301H39.1352ZM5.25312 0.165648L8.83984 10.1H7.20858L6.3 7.41489H2.51328L1.6039 10.1H0L3.58672 0.165648H5.25312ZM52.6016 2.78128C52.7729 2.78068 52.9438 2.79929 53.111 2.83675V4.22738C52.8947 4.16128 52.669 4.13094 52.443 4.13754C52.0059 4.1198 51.5829 4.294 51.285 4.61437C50.9872 4.93475 50.8442 5.3693 50.8937 5.80394V10.1H49.407V2.85707H50.825V4.08987H50.8594C51.0571 3.29626 51.7843 2.75007 52.6016 2.78128ZM44.7453 3.99302C43.5406 3.99302 42.825 4.9227 42.825 6.47895C42.825 8.04848 43.5406 8.96411 44.7453 8.96411C45.95 8.96411 46.6664 8.04848 46.6664 6.47895C46.6664 4.91567 45.95 3.99302 44.7453 3.99302ZM13.1437 4.04848C12.0078 4.04848 11.2437 5.03286 11.2437 6.47895C11.2437 7.93833 12.0078 8.91567 13.1437 8.91567C14.3 8.91567 15.0578 7.95864 15.0578 6.47895C15.0578 5.01255 14.3 4.04848 13.1437 4.04848ZM21.1156 4.04848C19.9797 4.04848 19.2156 5.03286 19.2156 6.47895C19.2156 7.93833 19.9797 8.91567 21.1156 8.91567C22.2719 8.91567 23.0297 7.95864 23.0297 6.47895C23.0297 5.01255 22.2719 4.04848 21.1156 4.04848ZM4.42738 1.81801H4.38597L2.90546 6.17582H5.90706L4.42738 1.81801ZM56.7844 3.9727C56.2954 3.96978 55.8255 4.16232 55.4791 4.50752C55.1327 4.85271 54.9386 5.32197 54.9398 5.81098H58.5609C58.5879 5.32645 58.4115 4.85263 58.0743 4.50367C57.7371 4.15472 57.2695 3.96227 56.7844 3.9727Z" fill="var(--fill-0, white)"/>
</svg>
