<svg preserveAspectRatio="none" width="100%" height="100%" overflow="visible" style="display: block;" viewBox="0 0 284.701 380.783" fill="none" xmlns="http://www.w3.org/2000/svg">
<g id="Group 4">
<path id="Vector 6" d="M140.341 216.495C146.094 252.445 102.153 333.11 79.4635 368.948L110.595 338.349L147.771 298.008L173.628 251.993L173.22 200.471L158.806 138.909C151.427 123.987 135.781 90.3526 132.233 75.1988C127.798 56.2566 133.843 46.5161 126.989 31.4701C121.507 19.4334 107.395 9.41706 101.025 5.91351C113.822 17.9026 104.49 63.3791 110.773 90.2139C117.056 117.049 133.149 171.557 140.341 216.495Z" fill="var(--fill-0, #00FFD1)"/>
<path id="Vector 7" d="M216.292 260.049C207.798 285.816 139.903 338.874 107.607 354.033L150.327 337.37L192.326 316.394L231.047 295.718L249.79 261.692L260.511 215.877C259.853 203.332 259.196 175.424 261.835 164.146C265.134 150.049 273.809 145.884 273.638 133.453C273.501 123.508 265.381 111.696 261.339 107.033C267.626 119.655 242.956 146.099 238.283 166.069C233.61 186.04 226.909 227.839 216.292 260.049Z" fill="var(--fill-0, #00FFD1)"/>
</g>
</svg>
