<svg preserveAspectRatio="none" width="100%" height="100%" overflow="visible" style="display: block;" viewBox="0 0 212.701 284.484" fill="none" xmlns="http://www.w3.org/2000/svg">
<g id="Group 3">
<path id="Vector 6" d="M104.849 161.744C109.147 188.603 76.3189 248.868 59.3674 275.643L82.6258 252.781L110.4 222.643L129.718 188.265L129.413 149.773L118.644 103.78C113.131 92.6308 101.443 67.5028 98.7918 56.1813C95.4782 42.0296 99.9942 34.7524 94.8743 23.5115C90.7784 14.5188 80.2355 7.03557 75.4761 4.41806C85.0371 13.3751 78.0647 47.3508 82.7588 67.3991C87.453 87.4475 99.4761 128.171 104.849 161.744Z" fill="var(--fill-0, #00FFD1)"/>
<path id="Vector 7" d="M161.592 194.284C155.246 213.535 104.522 253.174 80.3932 264.499L112.31 252.05L143.687 236.38L172.616 220.932L186.619 195.511L194.629 161.283C194.137 151.911 193.646 131.06 195.618 122.634C198.082 112.102 204.564 108.99 204.436 99.7034C204.333 92.2737 198.267 83.4485 195.247 79.9646C199.944 89.3952 181.514 109.151 178.022 124.071C174.531 138.991 169.525 170.22 161.592 194.284Z" fill="var(--fill-0, #00FFD1)"/>
</g>
</svg>
