<svg preserveAspectRatio="none" width="100%" height="100%" overflow="visible" style="display: block;" viewBox="0 0 67.8208 13.6232" fill="none" xmlns="http://www.w3.org/2000/svg">
<path id="Google Play" fill-rule="evenodd" clip-rule="evenodd" d="M52.7152 10.3624H54.208V0.3616H52.7152V10.3624ZM66.1608 3.964L64.4496 8.3H64.3984L62.6224 3.964H61.0144L63.6776 10.024L62.1592 13.3952H63.7168L67.8208 3.964H66.1608ZM57.6952 9.2264C57.2056 9.2264 56.524 8.9824 56.524 8.3776C56.524 7.6056 57.3736 7.3096 58.1064 7.3096C58.7632 7.3096 59.0712 7.4512 59.4704 7.644C59.3544 8.5704 58.5568 9.2264 57.6952 9.2264ZM57.8752 3.7456C56.7944 3.7456 55.6752 4.2216 55.212 5.2768L56.5368 5.8296C56.82 5.2768 57.3472 5.096 57.9008 5.096C58.6728 5.096 59.4576 5.5592 59.4704 6.3832V6.4856C59.2 6.3312 58.6216 6.1 57.9136 6.1C56.4856 6.1 55.0312 6.8848 55.0312 8.3512C55.0312 9.6896 56.2024 10.552 57.5144 10.552C58.5184 10.552 59.0712 10.1016 59.4192 9.5736H59.4704V10.3456H60.9112V6.512C60.9112 4.736 59.5864 3.7456 57.8752 3.7456ZM48.6496 5.1816H46.5264V1.7536H48.6496C49.7656 1.7536 50.3992 2.6776 50.3992 3.4672C50.3992 4.2424 49.7656 5.1816 48.6496 5.1816ZM48.6112 0.3616H45.0344V10.3624H46.5264V6.5736H48.6112C50.2656 6.5736 51.892 5.3752 51.892 3.4672C51.892 1.5592 50.2656 0.3616 48.6112 0.3616ZM29.1064 9.228C28.0752 9.228 27.212 8.3648 27.212 7.1792C27.212 5.9808 28.0752 5.104 29.1064 5.104C30.1248 5.104 30.9232 5.9808 30.9232 7.1792C30.9232 8.3648 30.1248 9.228 29.1064 9.228ZM30.82 4.524H30.7688C30.4336 4.1248 29.7896 3.764 28.9776 3.764C27.276 3.764 25.7168 5.2584 25.7168 7.1792C25.7168 9.0864 27.276 10.5688 28.9776 10.5688C29.7896 10.5688 30.4336 10.208 30.7688 9.7952H30.82V10.2848C30.82 11.5872 30.1248 12.2832 29.0032 12.2832C28.088 12.2832 27.5208 11.6256 27.2888 11.0712L25.9872 11.6128C26.3608 12.5152 27.3536 13.6232 29.0032 13.6232C30.756 13.6232 32.2384 12.592 32.2384 10.0792V3.9696H30.82V4.524ZM33.2696 10.3624H34.7648V0.3608H33.2696V10.3624ZM36.968 7.0632C36.9296 5.7488 37.9864 5.0784 38.7464 5.0784C39.34 5.0784 39.8424 5.3744 40.0096 5.8L36.968 7.0632ZM41.608 5.9288C41.3248 5.1688 40.4608 3.764 38.6952 3.764C36.9424 3.764 35.4864 5.1424 35.4864 7.1664C35.4864 9.0736 36.9296 10.5688 38.8624 10.5688C40.4224 10.5688 41.3248 9.6152 41.6984 9.0608L40.5384 8.2872C40.152 8.8544 39.6232 9.228 38.8624 9.228C38.1024 9.228 37.5608 8.88 37.2128 8.1976L41.7624 6.316L41.608 5.9288ZM5.3616 4.808V6.2512H8.8152C8.712 7.0632 8.4416 7.656 8.0296 8.0688C7.5264 8.5712 6.74 9.1248 5.3616 9.1248C3.2352 9.1248 1.572 7.4112 1.572 5.2848C1.572 3.1576 3.2352 1.444 5.3616 1.444C6.5088 1.444 7.3464 1.8952 7.9648 2.4752L8.9832 1.4568C8.1192 0.632 6.9728 0 5.3616 0C2.4488 0 0 2.372 0 5.2848C0 8.1976 2.4488 10.5688 5.3616 10.5688C6.9336 10.5688 8.1192 10.0536 9.0472 9.0864C10.0008 8.1328 10.2976 6.7928 10.2976 5.7096C10.2976 5.3744 10.272 5.0656 10.22 4.808H5.3616ZM14.2248 9.228C13.1936 9.228 12.304 8.3776 12.304 7.1664C12.304 5.9416 13.1936 5.104 14.2248 5.104C15.2552 5.104 16.1448 5.9416 16.1448 7.1664C16.1448 8.3776 15.2552 9.228 14.2248 9.228ZM14.2248 3.764C12.3424 3.764 10.8088 5.1944 10.8088 7.1664C10.8088 9.1248 12.3424 10.5688 14.2248 10.5688C16.1064 10.5688 17.64 9.1248 17.64 7.1664C17.64 5.1944 16.1064 3.764 14.2248 3.764ZM21.6752 9.228C20.644 9.228 19.7544 8.3776 19.7544 7.1664C19.7544 5.9416 20.644 5.104 21.6752 5.104C22.7064 5.104 23.5952 5.9416 23.5952 7.1664C23.5952 8.3776 22.7064 9.228 21.6752 9.228ZM21.6752 3.764C19.7936 3.764 18.26 5.1944 18.26 7.1664C18.26 9.1248 19.7936 10.5688 21.6752 10.5688C23.5568 10.5688 25.0904 9.1248 25.0904 7.1664C25.0904 5.1944 23.5568 3.764 21.6752 3.764Z" fill="var(--fill-0, white)"/>
</svg>
