<svg preserveAspectRatio="none" width="100%" height="100%" overflow="visible" style="display: block;" viewBox="0 0 18.4568 20.5597" fill="none" xmlns="http://www.w3.org/2000/svg">
<g id="Logo">
<path id="Blue" fill-rule="evenodd" clip-rule="evenodd" d="M0.3696 0.317426C0.1368 0.563826 0 0.945426 0 1.44063V19.119C0 19.6142 0.1368 19.9958 0.3696 20.2422L0.4288 20.2998L10.332 10.3966V10.163L0.4288 0.259826L0.3696 0.317426Z" fill="var(--fill-0, #00D7FE)"/>
<g id="Yellow">
<mask id="mask0_5_481" style="mask-type:alpha" maskUnits="userSpaceOnUse" x="10" y="6" width="9" height="8">
<g id="mask 2">
<path id="Vector" d="M13.632 13.699L10.332 10.3966V10.163L13.6336 6.86143L17.6192 9.12543C18.736 9.76063 18.736 10.799 17.6192 11.4334L13.708 13.6558L13.632 13.699Z" fill="var(--fill-0, white)"/>
</g>
</mask>
<g mask="url(#mask0_5_481)">
<path id="Fill 7" fill-rule="evenodd" clip-rule="evenodd" d="M13.632 13.699L10.332 10.3966V10.163L13.6336 6.86143L17.6192 9.12543C18.736 9.76063 18.736 10.799 17.6192 11.4334L13.708 13.6558L13.632 13.699Z" fill="url(#paint0_linear_5_481)"/>
</g>
</g>
<g id="Red">
<mask id="mask1_5_481" style="mask-type:alpha" maskUnits="userSpaceOnUse" x="0" y="10" width="14" height="11">
<g id="mask 5">
<path id="Vector_2" d="M13.708 13.6558L10.332 10.2798L0.3696 20.2422C0.7384 20.6318 1.3464 20.6798 2.0312 20.291L13.708 13.6558Z" fill="var(--fill-0, white)"/>
</g>
</mask>
<g mask="url(#mask1_5_481)">
<path id="Fill 10" fill-rule="evenodd" clip-rule="evenodd" d="M13.708 13.6558L10.332 10.2798L0.3696 20.2422C0.7384 20.6318 1.3464 20.6798 2.0312 20.291L13.708 13.6558Z" fill="url(#paint1_linear_5_481)"/>
</g>
</g>
<g id="Green">
<mask id="mask2_5_481" style="mask-type:alpha" maskUnits="userSpaceOnUse" x="0" y="0" width="14" height="11">
<g id="mask 8">
<path id="Vector_3" d="M13.708 6.90383L2.0312 0.268626C1.3464 -0.120174 0.7384 -0.0721743 0.3696 0.317426L10.332 10.2798L13.708 6.90383Z" fill="var(--fill-0, white)"/>
</g>
</mask>
<g mask="url(#mask2_5_481)">
<path id="Fill 13" fill-rule="evenodd" clip-rule="evenodd" d="M13.708 6.90383L2.0312 0.268626C1.3464 -0.120174 0.7384 -0.0721743 0.3696 0.317426L10.332 10.2798L13.708 6.90383Z" fill="url(#paint2_linear_5_481)"/>
</g>
</g>
</g>
<defs>
<linearGradient id="paint0_linear_5_481" x1="16.8926" y1="10.2801" x2="10.332" y2="10.2801" gradientUnits="userSpaceOnUse">
<stop stop-color="#FFBC00"/>
<stop offset="1" stop-color="#FFDA03"/>
</linearGradient>
<linearGradient id="paint1_linear_5_481" x1="11.8733" y1="13.4565" x2="3.31048" y2="20.5145" gradientUnits="userSpaceOnUse">
<stop stop-color="#E22652"/>
<stop offset="1" stop-color="#FF3A44"/>
</linearGradient>
<linearGradient id="paint2_linear_5_481" x1="1.87813" y1="1.51676" x2="7.58712" y2="6.5367" gradientUnits="userSpaceOnUse">
<stop stop-color="#0ED574"/>
<stop offset="1" stop-color="#07F076"/>
</linearGradient>
</defs>
</svg>
