<svg preserveAspectRatio="none" width="100%" height="100%" overflow="visible" style="display: block;" viewBox="0 0 16 16" fill="none" xmlns="http://www.w3.org/2000/svg">
<g id="Footers/Social icon">
<path id="Icon" fill-rule="evenodd" clip-rule="evenodd" d="M8.21065 1.33594C9.83065 1.33594 10.0666 1.3446 10.7493 1.37594C11.4586 1.4086 11.9433 1.52127 12.3673 1.68594C12.8123 1.85319 13.2155 2.11551 13.5487 2.4546C13.8877 2.78779 14.1501 3.19094 14.3173 3.63594C14.482 4.05994 14.5947 4.5446 14.6273 5.25394C14.6593 5.96527 14.6673 6.19194 14.6673 8.0026V8.05594C14.6673 9.81794 14.6593 10.0473 14.6273 10.7513C14.5947 11.4606 14.482 11.9453 14.3173 12.3693C14.1501 12.8143 13.8877 13.2174 13.5487 13.5506C13.2155 13.8897 12.8123 14.152 12.3673 14.3193C11.9433 14.4839 11.4586 14.5966 10.7493 14.6293C10.038 14.6613 9.81132 14.6693 8.00065 14.6693H7.94732C6.18532 14.6693 5.95598 14.6613 5.25198 14.6293C4.54265 14.5966 4.05798 14.4839 3.63398 14.3193C3.18899 14.152 2.78583 13.8897 2.45265 13.5506C2.11356 13.2174 1.85123 12.8143 1.68398 12.3693C1.51932 11.9453 1.40665 11.4606 1.37398 10.7513C1.34265 10.0686 1.33398 9.83194 1.33398 8.2126V7.7926C1.33398 6.1726 1.34265 5.9366 1.37398 5.25394C1.40665 4.5446 1.51932 4.05994 1.68398 3.63594C1.85123 3.19094 2.11356 2.78779 2.45265 2.4546C2.78583 2.11551 3.18899 1.85319 3.63398 1.68594C4.05798 1.52127 4.54265 1.4086 5.25198 1.37594C5.93465 1.3446 6.17132 1.33594 7.79065 1.33594H8.21065ZM8.15665 2.53727H7.84465C6.20732 2.53727 5.98865 2.5446 5.30665 2.57594C4.65665 2.60594 4.30398 2.71394 4.06865 2.80527C3.75732 2.9266 3.53532 3.0706 3.30198 3.30394C3.06865 3.53727 2.92465 3.75927 2.80332 4.0706C2.71198 4.30594 2.60332 4.6586 2.57398 5.3086C2.54265 5.9906 2.53532 6.20927 2.53532 7.8466V8.1586C2.53532 9.79594 2.54265 10.0146 2.57398 10.6966C2.60398 11.3466 2.71198 11.6993 2.80332 11.9346C2.92465 12.2453 3.06932 12.4679 3.30198 12.7013C3.53532 12.9346 3.75732 13.0786 4.06865 13.1999C4.30398 13.2913 4.65665 13.3999 5.30665 13.4293C6.00932 13.4613 6.21998 13.4679 8.00065 13.4679H8.05398C9.78532 13.4679 9.99865 13.4613 10.694 13.4293C11.3447 13.3993 11.6973 13.2913 11.9327 13.1999C12.2433 13.0786 12.466 12.9346 12.6993 12.7013C12.9327 12.4679 13.0767 12.2459 13.198 11.9346C13.2893 11.6993 13.398 11.3466 13.4273 10.6966C13.4593 9.99327 13.466 9.78327 13.466 8.0026V7.94927C13.466 6.21794 13.4593 6.0046 13.4273 5.30927C13.3973 4.6586 13.2893 4.30594 13.198 4.0706C13.0912 3.78098 12.9208 3.519 12.6993 3.30394C12.4842 3.08251 12.2223 2.91211 11.9327 2.80527C11.6973 2.71394 11.3447 2.60527 10.6947 2.57594C10.0127 2.5446 9.79398 2.53727 8.15665 2.53727ZM8.00065 4.57927C8.45021 4.57927 8.89537 4.66782 9.3107 4.83986C9.72604 5.01189 10.1034 5.26406 10.4213 5.58194C10.7392 5.89983 10.9914 6.27721 11.1634 6.69255C11.3354 7.10789 11.424 7.55305 11.424 8.0026C11.424 8.45216 11.3354 8.89732 11.1634 9.31266C10.9914 9.72799 10.7392 10.1054 10.4213 10.4233C10.1034 10.7412 9.72604 10.9933 9.3107 11.1654C8.89537 11.3374 8.45021 11.4259 8.00065 11.4259C7.09273 11.4259 6.22199 11.0653 5.57999 10.4233C4.93799 9.78127 4.57732 8.91053 4.57732 8.0026C4.57732 7.09468 4.93799 6.22394 5.57999 5.58194C6.22199 4.93994 7.09273 4.57927 8.00065 4.57927ZM8.00065 5.7806C7.41134 5.7806 6.84617 6.01471 6.42946 6.43141C6.01275 6.84812 5.77865 7.41329 5.77865 8.0026C5.77865 8.59191 6.01275 9.15709 6.42946 9.57379C6.84617 9.9905 7.41134 10.2246 8.00065 10.2246C8.58996 10.2246 9.15514 9.9905 9.57184 9.57379C9.98855 9.15709 10.2227 8.59191 10.2227 8.0026C10.2227 7.41329 9.98855 6.84812 9.57184 6.43141C9.15514 6.01471 8.58996 5.7806 8.00065 5.7806ZM11.5593 3.64394C11.7715 3.64394 11.975 3.72822 12.125 3.87825C12.275 4.02828 12.3593 4.23176 12.3593 4.44394C12.3593 4.65611 12.275 4.85959 12.125 5.00962C11.975 5.15965 11.7715 5.24394 11.5593 5.24394C11.3471 5.24394 11.1437 5.15965 10.9936 5.00962C10.8436 4.85959 10.7593 4.65611 10.7593 4.44394C10.7593 4.23176 10.8436 4.02828 10.9936 3.87825C11.1437 3.72822 11.3471 3.64394 11.5593 3.64394Z" fill="var(--fill-0, #94A3B8)"/>
</g>
</svg>
