<svg width="547" height="381" viewBox="0 0 547 381" fill="none" xmlns="http://www.w3.org/2000/svg">
<path d="M438.849 213.744C443.147 240.603 410.319 300.868 393.367 327.643L416.626 304.782L444.4 274.643L463.718 240.265L463.413 201.773L452.644 155.78C447.131 144.631 435.443 119.503 432.792 108.181C429.478 94.0297 433.994 86.7525 428.874 75.5116C424.778 66.5189 414.236 59.0357 409.476 56.4182C419.037 65.3752 412.065 99.3509 416.759 119.399C421.453 139.448 433.476 180.171 438.849 213.744Z" fill="#00FFD1"/>
<path d="M495.592 246.284C489.246 265.535 438.522 305.174 414.393 316.499L446.309 304.05L477.687 288.379L506.616 272.932L520.619 247.511L528.628 213.283C528.137 203.91 527.646 183.06 529.618 174.634C532.082 164.102 538.564 160.99 538.436 151.703C538.333 144.274 532.267 135.448 529.247 131.965C533.944 141.395 515.514 161.151 512.022 176.071C508.531 190.991 503.525 222.22 495.592 246.284Z" fill="#00FFD1"/>
<path d="M144.36 216.495C138.607 252.445 182.548 333.11 205.238 368.948L174.106 338.348L136.93 298.008L111.073 251.992L111.481 200.471L125.895 138.909C133.275 123.986 148.92 90.3524 152.468 75.1987C156.903 56.2565 150.859 46.516 157.712 31.47C163.194 19.4332 177.306 9.41694 183.676 5.91339C170.879 17.9024 180.211 63.379 173.928 90.2138C167.645 117.049 151.552 171.557 144.36 216.495Z" fill="#00FFD1"/>
<path d="M68.4095 260.049C76.9034 285.816 144.798 338.874 177.095 354.033L134.375 337.37L92.3754 316.394L53.6541 295.718L34.9112 261.692L24.1904 215.877C24.8485 203.332 25.5051 175.424 22.8661 164.146C19.5674 150.049 10.892 145.884 11.0634 133.453C11.2006 123.508 19.32 111.696 23.3625 107.033C17.0755 119.655 41.7448 146.099 46.418 166.069C51.0912 186.04 57.7921 227.839 68.4095 260.049Z" fill="#00FFD1"/>
</svg>
